<svg width="16" height="14" viewBox="0 0 16 14" fill="none" xmlns="http://www.w3.org/2000/svg">
<path d="M15.5723 12.0316C16.077 12.9064 15.4434 14 14.4354 14H1.3135C0.3035 14 -0.327102 12.9047 0.176625 12.0316L6.73765 0.65584C7.24261 -0.219406 8.50734 -0.21782 9.01139 0.65584L15.5723 12.0316ZM7.87452 9.67969C7.17985 9.67969 6.61671 10.2428 6.61671 10.9375C6.61671 11.6322 7.17985 12.1953 7.87452 12.1953C8.56919 12.1953 9.13233 11.6322 9.13233 10.9375C9.13233 10.2428 8.56919 9.67969 7.87452 9.67969ZM6.68034 5.15851L6.88317 8.87726C6.89266 9.05127 7.03654 9.1875 7.2108 9.1875H8.53823C8.7125 9.1875 8.85638 9.05127 8.86587 8.87726L9.0687 5.15851C9.07896 4.97055 8.92931 4.8125 8.74107 4.8125H7.00794C6.81971 4.8125 6.67008 4.97055 6.68034 5.15851Z" fill="#EA0F50"/>
</svg>
