<svg xmlns="http://www.w3.org/2000/svg" xmlns:xlink="http://www.w3.org/1999/xlink" width="4000" height="4000" viewBox="0 0 4000 4000">
  <defs>
    <filter id="Ellipse_3" x="152" y="155" width="3697" height="3697" filterUnits="userSpaceOnUse">
      <feOffset dy="3" input="SourceAlpha"/>
      <feGaussianBlur stdDeviation="3" result="blur"/>
      <feFlood flood-opacity="0.161"/>
      <feComposite operator="in" in2="blur"/>
      <feComposite in="SourceGraphic"/>
    </filter>
    <linearGradient id="linear-gradient" x1="0.817" y1="0.113" x2="0.184" y2="0.89" gradientUnits="objectBoundingBox">
      <stop offset="0" stop-color="#0099fa"/>
      <stop offset="1" stop-color="#90d35f"/>
    </linearGradient>
    <filter id="Union_8" x="482" y="485" width="3037" height="3037" filterUnits="userSpaceOnUse">
      <feOffset dy="3" input="SourceAlpha"/>
      <feGaussianBlur stdDeviation="3" result="blur-2"/>
      <feFlood flood-opacity="0.161"/>
      <feComposite operator="in" in2="blur-2"/>
      <feComposite in="SourceGraphic"/>
    </filter>
    <linearGradient id="linear-gradient-2" x1="0.882" y1="-0.018" x2="0.11" y2="1.016" xlink:href="#linear-gradient"/>
    <filter id="Union_12" x="824.761" y="824.846" width="2364.697" height="2361.442" filterUnits="userSpaceOnUse">
      <feOffset dy="3" input="SourceAlpha"/>
      <feGaussianBlur stdDeviation="3" result="blur-3"/>
      <feFlood flood-opacity="0.161"/>
      <feComposite operator="in" in2="blur-3"/>
      <feComposite in="SourceGraphic"/>
    </filter>
    <linearGradient id="linear-gradient-3" x1="1.333" y1="-0.223" x2="-0.608" y2="1.22" xlink:href="#linear-gradient"/>
    <filter id="Subtraction_21" x="1177.051" y="1654.355" width="1646.431" height="974.333" filterUnits="userSpaceOnUse">
      <feOffset dy="3" input="SourceAlpha"/>
      <feGaussianBlur stdDeviation="3" result="blur-4"/>
      <feFlood flood-opacity="0.161"/>
      <feComposite operator="in" in2="blur-4"/>
      <feComposite in="SourceGraphic"/>
    </filter>
    <linearGradient id="linear-gradient-4" x1="0.845" y1="0.5" x2="0.323" y2="0.966" xlink:href="#linear-gradient"/>
    <filter id="Subtraction_16" x="1340.424" y="1181.526" width="1321.623" height="1055.38" filterUnits="userSpaceOnUse">
      <feOffset dy="3" input="SourceAlpha"/>
      <feGaussianBlur stdDeviation="3" result="blur-5"/>
      <feFlood flood-opacity="0.161"/>
      <feComposite operator="in" in2="blur-5"/>
      <feComposite in="SourceGraphic"/>
    </filter>
    <clipPath id="clip-Artboard_19">
      <rect width="4000" height="4000"/>
    </clipPath>
  </defs>
  <g id="Artboard_19" data-name="Artboard – 19" clip-path="url(#clip-Artboard_19)">
    <g id="Group_4" data-name="Group 4" transform="translate(-1294 -464)">
      <g transform="matrix(1, 0, 0, 1, 1294, 464)" filter="url(#Ellipse_3)">
        <circle id="Ellipse_3-2" data-name="Ellipse 3" cx="1839.5" cy="1839.5" r="1839.5" transform="translate(161 161)" fill="#fff"/>
      </g>
      <g transform="matrix(1, 0, 0, 1, 1294, 464)" filter="url(#Union_8)">
        <path id="Union_8-2" data-name="Union 8" d="M1205.278,2988.333A1501.261,1501.261,0,0,1,665.522,2761.2a1513.977,1513.977,0,0,1-546.9-664.14,1501.255,1501.255,0,0,1-87.958-283.348,1524.255,1524.255,0,0,1,0-608.435A1501.256,1501.256,0,0,1,257.8,665.522,1523.827,1523.827,0,0,1,387.525,499.658l.13.111a87.583,87.583,0,1,1,131.571,114.6l.408.352a1335.262,1335.262,0,0,0-239.605,375.4,1327.537,1327.537,0,0,0-77.757,250.464,1347.473,1347.473,0,0,0,0,537.828,1327.2,1327.2,0,0,0,200.778,477.124,1338.079,1338.079,0,0,0,587.069,483.439,1328.07,1328.07,0,0,0,250.464,77.757,1347.478,1347.478,0,0,0,537.828,0,1327.2,1327.2,0,0,0,477.124-200.778,1338.664,1338.664,0,0,0,454.738-523.9l.33.157a87.6,87.6,0,1,1,152.573,85.945,1512.052,1512.052,0,0,1-1657.9,810.178ZM2843.835,1488.885c0-.38,0-.751.01-1.131l-.177.009h-.009v-.009a1344.61,1344.61,0,0,0-26.93-247.172,1327.381,1327.381,0,0,0-200.778-477.124,1338.415,1338.415,0,0,0-587.069-483.439,1328.679,1328.679,0,0,0-250.474-77.748,1336.7,1336.7,0,0,0-734.84,56.5,87.6,87.6,0,1,1-70.737-160.1l-.167-.417a1505.754,1505.754,0,0,1,232.613-67.594,1524.255,1524.255,0,0,1,608.435,0A1501.257,1501.257,0,0,1,2353.469,257.8,1513.857,1513.857,0,0,1,2900.375,921.93a1502.4,1502.4,0,0,1,87.958,283.348,1521.132,1521.132,0,0,1,30.417,276.532h-.028q.278,3.505.278,7.075a87.582,87.582,0,1,1-175.165,0Z" transform="translate(491 491)" fill="url(#linear-gradient)"/>
      </g>
      <g transform="matrix(1, 0, 0, 1, 1294, 464)" filter="url(#Union_12)">
        <path id="Union_12-2" data-name="Union 12" d="M1292.794,2343.442v-.009l-.035-.318q-3.71.315-7.505.318a87.6,87.6,0,0,1-1.967-175.169c30.248-3.351,60.5-8.1,90.068-14.157A994.2,994.2,0,0,0,1730.8,2003.7a1002.558,1002.558,0,0,0,362.162-439.792,994.555,994.555,0,0,0,58.246-187.638,1009.665,1009.665,0,0,0,0-402.915,994.188,994.188,0,0,0-150.409-357.441,1002.493,1002.493,0,0,0-439.8-362.162A994.972,994.972,0,0,0,1373.355,195.5a1009.212,1009.212,0,0,0-402.915,0A994.053,994.053,0,0,0,613.008,345.913a1002.445,1002.445,0,0,0-362.171,439.8A993.961,993.961,0,0,0,175.7,1091.605h-.445a87.595,87.595,0,0,1-174.969,0H0l.195-2.7c-.009-.566-.019-1.131-.019-1.7a87.788,87.788,0,0,1,1.41-15.721A1175.148,1175.148,0,1,1,1408.664,2325.746c-37.99,7.772-76.971,13.727-115.861,17.7Zm-557.183-77.556-.009.028v.009h-.009c-.12-.046-.25-.1-.38-.148a87.29,87.29,0,0,1-17.112-7.021c-1.169-.492-2.328-.974-3.487-1.466A1178.331,1178.331,0,0,1,92.451,1639.217l.232-.1a87.617,87.617,0,1,1,162.327-65.471A1002.657,1002.657,0,0,0,782.8,2095.861c5.166,2.18,10.4,4.341,15.545,6.418l-.241.622a87.623,87.623,0,0,1-62.494,162.986Z" transform="translate(833.76 830.85)" fill="url(#linear-gradient-2)"/>
      </g>
      <g id="Group_15" data-name="Group 15" transform="translate(5764.373 -833.161) rotate(90)">
        <g transform="matrix(0, -1, 1, 0, 1297.16, 4470.37)" filter="url(#Subtraction_21)">
          <path id="Subtraction_21-2" data-name="Subtraction 21" d="M342.564,1628.428a822.625,822.625,0,0,1-274.247-47.086A92.661,92.661,0,0,1,.01,1491.847a93.426,93.426,0,0,1,1.884-18.692,92.237,92.237,0,0,1,13.956-33.164,93.02,93.02,0,0,1,40.806-33.6,92.275,92.275,0,0,1,17.41-5.4,93.475,93.475,0,0,1,44.361,1.714l.164-.477a637.75,637.75,0,0,0,223.853,40.73,625.322,625.322,0,0,0,274.45-63.635A631.673,631.673,0,0,0,793.93,1250.6l.338.323a93.028,93.028,0,0,1,30.693-22.731,92.261,92.261,0,0,1,18.557-6.226,93.626,93.626,0,0,1,38.768-.294,92.234,92.234,0,0,1,33.164,13.956,93.019,93.019,0,0,1,33.6,40.806,92.277,92.277,0,0,1,5.4,17.41,93.606,93.606,0,0,1-.374,39.125,92.353,92.353,0,0,1-16.591,35.621,93.443,93.443,0,0,1-13.349,14.2,818.975,818.975,0,0,1-225.959,163.284,809.692,809.692,0,0,1-305.316,80.792C376.325,1627.9,359.4,1628.428,342.564,1628.428ZM859.473,405.667a93.215,93.215,0,0,1-21.368-2.474A92.421,92.421,0,0,1,801.226,385.1a93.442,93.442,0,0,1-14.38-14.49c-8.088-8.133-16.451-16.1-24.858-23.68a625.7,625.7,0,0,0-333.1-155.223,638.069,638.069,0,0,0-88.528-6.233A624.032,624.032,0,0,0,179.7,206.565a630.628,630.628,0,0,0-60.453,19.468l-.132-.385A92.772,92.772,0,1,1,66.851,47.617c21.454-7.7,43.369-14.55,65.138-20.352A810.713,810.713,0,0,1,289.921,1.555C306.624.521,323.55,0,340.227,0A822.621,822.621,0,0,1,614.872,47.225,809.362,809.362,0,0,1,886.094,209.051c15.488,13.958,30.663,28.743,45.1,43.944l-.514.5a92.38,92.38,0,0,1,21.537,59.427,93.449,93.449,0,0,1-1.884,18.692,92.236,92.236,0,0,1-13.956,33.164,93.02,93.02,0,0,1-40.806,33.6,92.291,92.291,0,0,1-17.41,5.4A93.447,93.447,0,0,1,859.473,405.667Z" transform="translate(2814.48 1660.35) rotate(90)" fill="url(#linear-gradient-3)"/>
        </g>
        <g transform="matrix(0, -1, 1, 0, 1297.16, 4470.37)" filter="url(#Subtraction_16)">
          <path id="Subtraction_16-2" data-name="Subtraction 16" d="M357.433,1303.625a92.35,92.35,0,0,1-57.983-20.354l-.176.21-.006.007-.008-.006c-10.091-8.254-20.093-16.845-29.73-25.536A816.526,816.526,0,0,1,27.293,862.189,810.018,810.018,0,0,1,1.582,704.258,822.024,822.024,0,0,1,47.251,379.307,809.535,809.535,0,0,1,209.078,108.075a820.213,820.213,0,0,1,89.983-85.682A92.392,92.392,0,0,1,359.5,0a93.38,93.38,0,0,1,18.692,1.884,92.212,92.212,0,0,1,33.164,13.955,93.007,93.007,0,0,1,33.6,40.806,92.236,92.236,0,0,1,5.4,17.41,93.6,93.6,0,0,1-.423,39.344A92.375,92.375,0,0,1,433,149.321a93.444,93.444,0,0,1-13.613,14.25l.034.041a635.832,635.832,0,0,0-72.465,68.578A625.639,625.639,0,0,0,192.563,559.58H944.654a93.38,93.38,0,0,1,18.692,1.885,92.263,92.263,0,0,1,33.165,13.955,93.034,93.034,0,0,1,33.6,40.807,92.262,92.262,0,0,1,5.4,17.41,93.633,93.633,0,0,1,0,37.383,92.206,92.206,0,0,1-13.955,33.164,93,93,0,0,1-40.807,33.6,92.166,92.166,0,0,1-17.41,5.4,93.375,93.375,0,0,1-18.692,1.885H192.226a630.626,630.626,0,0,0,201.419,374.981c5.672,5.115,11.546,10.22,17.46,15.171a93.154,93.154,0,0,1,28.407,32.419,92.349,92.349,0,0,1,10.67,43.231,93.376,93.376,0,0,1-1.885,18.692,92.25,92.25,0,0,1-13.956,33.164,93.02,93.02,0,0,1-40.807,33.6,92.236,92.236,0,0,1-17.41,5.4A93.38,93.38,0,0,1,357.433,1303.625Z" transform="translate(2653.05 1187.5) rotate(90)" fill="url(#linear-gradient-4)"/>
        </g>
      </g>
    </g>
  </g>
</svg>
