<svg width="11" height="10" viewBox="0 0 11 10" fill="none" xmlns="http://www.w3.org/2000/svg">
<path d="M9.63985 0.480314L7.6086 0.0115637C7.3879 -0.0392175 7.16134 0.0760169 7.07149 0.283048L6.13399 2.47055C6.05196 2.66195 6.10665 2.88656 6.26876 3.01742L7.45235 3.98617C6.74923 5.48422 5.52071 6.73031 3.99141 7.44711L3.02266 6.26352C2.88985 6.10141 2.6672 6.04672 2.47579 6.12875L0.288289 7.06625C0.079305 7.15805 -0.0359294 7.38461 0.0148519 7.60531L0.483602 9.63656C0.53243 9.8475 0.71993 9.99984 0.940633 9.99984C5.94259 9.99984 10.0031 5.94711 10.0031 0.937345C10.0031 0.718595 9.85274 0.529142 9.63985 0.480314Z" fill="#0099FA"/>
</svg>
